<svg id="Su_Muebleria" data-name="Su Muebleria" xmlns="http://www.w3.org/2000/svg" viewBox="0 0 1000 400"><defs><style>.cls-1{fill:#2d2926;}.cls-2{fill:#ed1c24;}</style></defs><title>brand-color-alt</title><path class="cls-1" d="M894.83,140.62a1.78,1.78,0,0,0,.17-.74h0a6.23,6.23,0,0,0,.1-1.15,6.77,6.77,0,0,0-.94-3.43,21.46,21.46,0,0,0,3.47-12.15,26,26,0,0,0-.29-3.79c-1.24-9.26-6.05-22.83-6.05-31.51,0-7,3-11,4.77-12.81.8-.32,1.26-.69,1.26-1.08s-.37-.68-1-1h0c2.85,0,11.51-14.31,11.51-14.31l6,.69s-2.18-2.53-4.77-2.73v-.16c0-3.72,10.74-14.33,10.74-14.33A2.39,2.39,0,0,0,922,43.7s10,.65,10-9.16a5.46,5.46,0,0,0-.35-2.28,4.43,4.43,0,0,0-.15-.43,3.08,3.08,0,0,0,.35-1.42,3.11,3.11,0,0,0-3.11-3.11h-.1a3.29,3.29,0,0,0-5.57-.25,7.59,7.59,0,0,0-6.27,7.11c-1,1.64-1.4,3.24-.23,4.41A2.39,2.39,0,0,0,918.82,41c-2.77,3.14-5.71,7.07-6.93,8.29-2.29,2.29-4.63,4.41-4.63,4.41l2.37-5.28a24.43,24.43,0,0,0-4.15,3.15c-1.18,1.18-4.66,4.41-4.66,4.41,0-2.58,6.15-7.56,6.15-7.56s-2.83-.34-6.69,3.53-3.41,5.43-3.41,5.43l-.52.25-1,.35a39.9,39.9,0,0,0,1.84-6.39,5,5,0,0,0,1.12-1.08h0a5,5,0,0,0,1-3,5.19,5.19,0,0,0-.18-1.32c2.62-7.66,10.62-16.27,10.62-16.27v0a7.37,7.37,0,0,0,9.59-2.1h0l.09-.12.1-.14c.69-1,3.11-4.83,3.11-8.18a1.4,1.4,0,0,0-.11-.74,2.54,2.54,0,0,0-2.07-1.77,2.56,2.56,0,0,0-2.09-1.1h-.06a2.53,2.53,0,0,0-2.48-2,2.48,2.48,0,0,0-1.48.49l-4.27,2.57-.28.15,0-.23c-.41-2.45-1.75-4.27-3-4.06a1.78,1.78,0,0,0-1.23,1.16l-.1-.1a2.85,2.85,0,0,0-2.83-2.56,2.75,2.75,0,0,0-1.34.34l-.28-.05a3.72,3.72,0,0,0-3.1-1.42,3.51,3.51,0,0,0-3.28,1.75h0l-1.46,3.06a7.9,7.9,0,0,0-1.07,2.25h0a8.09,8.09,0,0,0-.33,2.27A8,8,0,0,0,894,24.86a6.43,6.43,0,0,0-.47,2.44,6.76,6.76,0,0,0,1.74,4.5l-.34,3.85a4.6,4.6,0,0,0-1.18-.16,4.47,4.47,0,0,0-2.13.55,5.12,5.12,0,0,0-.56,0,5,5,0,0,0-4.7,3.37l-.19.16a1.25,1.25,0,0,0-.5-.11c-1.23,0-2.23,1.93-2.23,4.3a8.37,8.37,0,0,0,0,.89,8.3,8.3,0,0,0,0,.87,7.83,7.83,0,0,0,2.62,5.85A2.82,2.82,0,0,0,884,53.86a7.8,7.8,0,0,1-.53,2.54v-.69c0-16-5.22-24.77-7.93-28.27a8,8,0,0,0,2.89-6.16c0-.2,0-.39,0-.59s0-.39,0-.59a8,8,0,0,0-5-7.4,1.35,1.35,0,0,0,0-.29c0-1-1.27-1.78-2.85-1.78a3.29,3.29,0,0,0-2.55,1,3.9,3.9,0,0,0-5.42,1.79,1.25,1.25,0,0,0-1-.6,1.58,1.58,0,0,0-1.36,1.67,2,2,0,0,0-.55-.09A1.79,1.79,0,0,0,858,15.78a1.13,1.13,0,0,0-.32,0,1.23,1.23,0,0,0-1.21,1,1.24,1.24,0,0,0-.72.46c-.16,0-.25.21-.25.74,0,2.92,2.72,6.21,3.8,7.4.12.14.25.28.38.41l.06.05h0c.5.79,1.52,1.28,3.25,1.28a6.29,6.29,0,0,1,2.84.71,7.79,7.79,0,0,0,1,.6c7.16,5,11,22.52,11,22.52l-3.07-3.45s2.63,8.94,2.17,8.94-5.65-10.34-8.6-10.5l.11,0c2-.62,2.79-3.57,1.84-6.58s-3.16-4.82-5.09-4.38a4,4,0,0,0-7.41.58,4.16,4.16,0,0,0-2.56,7,.71.71,0,0,0-.33.22c-.48.67.64,2.3,2.51,3.64a8,8,0,0,0,3.14,1.49,6.87,6.87,0,0,0,6.9-1.16c5,2.48,11.06,13.81,9.17,13.81-2.13,0,1,12.11,1,12.11-1.15.36-1.82.8-1.82,1.27s.46.76,1.26,1.08c1.76,1.76,4.77,5.78,4.77,12.81,0,8.68-4.81,22.25-6.05,31.51a24.66,24.66,0,0,0-.29,3.79A21.46,21.46,0,0,0,879,135.29a6.76,6.76,0,0,0-.93,3.43,7.24,7.24,0,0,0,.09,1.15h0a1.65,1.65,0,0,0,.18.74,3.21,3.21,0,0,0,1.09,1.17h14.35A3.3,3.3,0,0,0,894.83,140.62Zm4.72-106.33h0a9.1,9.1,0,0,0,1.29.18,4.25,4.25,0,0,0,2.36.69h.1a42.82,42.82,0,0,0-4.16,7l-.16,1.7a7.26,7.26,0,0,0-.27-.94,7,7,0,0,0,.16-1.46,6.72,6.72,0,0,0-.86-3.32C898.26,36.64,898.78,34.29,899.55,34.29ZM879.68,46.6s-1.88-2.47-1.88-1.92-5.27-12.13-8.26-15.46a6.49,6.49,0,0,0,.88.05,8,8,0,0,0,4.21-1.19c3,3.41,5,9.13,6.28,14.85C880,42.93,879.68,46.6,879.68,46.6Zm14.51,6.18a7.12,7.12,0,0,0,.79-.37h.1c-.05,2.11-.09,4.56-1.15,6.08l-1.34.5C892.5,57.87,893.48,54.83,894.19,52.78Zm-3.12.55h.22l.49,0-.71,4.56S888.93,53.33,891.07,53.33Z"/><path class="cls-2" d="M169.94,174.35h-4.47v35.9h-4.12L134.14,108.77l-.88-3.31H93.09l-.89,3.31L65,210.25H63V77.18H83.3V44.56H10V77.18H30.34V210.25H10v32.62H56.26l-7.32,27.3H30.71v32.62H104V270.17H82.71L90,242.87h46.29l7.32,27.3H122.33v32.62h73.3V270.17H177.41l-7.32-27.3h28V174.35H169.94Zm-71.17,35.9,14.4-53.73,14.41,53.73Z"/><polygon class="cls-2" points="244.07 389.83 254.48 389.83 254.48 369.02 271.87 369.02 271.87 359.64 254.48 359.64 254.48 348.83 273.31 348.83 273.31 339.37 244.07 339.37 244.07 389.83"/><path class="cls-2" d="M342.31,368.83c0,12.43-6.74,12.43-8.95,12.43-7,0-8.48-6.76-8.48-12.43V339.37H314.4V368.7c0,13.9,6.84,21.88,18.75,21.88,12.48,0,19.64-8.08,19.64-22.16V339.37H342.31Z"/><path class="cls-2" d="M426.61,374.47c-.87-3.82-2.37-6.72-4.47-8.66a14,14,0,0,0,6.44-12.06,13.57,13.57,0,0,0-4.35-10.39c-3.31-3-7.88-4.33-14.81-4.33a64.54,64.54,0,0,0-11.84,1l-1.79.37v49.43H406.2V369.91h3.27c3.81.14,5.84,1.25,7.12,7.19,1.57,6.95,2.5,10.21,3.31,11.62l.65,1.11h11.18l-1.78-3.3C429.11,385,427.94,380.14,426.61,374.47ZM406.2,348.26a32.79,32.79,0,0,1,3.61-.18c8.36.09,8.36,4.81,8.36,6.36,0,4-3.12,6.49-8.13,6.49H406.2Z"/><path class="cls-2" d="M498.61,360.85c0,3.13,0,6.07.1,8.95q-1.69-3-3.69-6.12l-15.39-24.31h-9.95v50.46h10.06V368c0-3.6,0-6.73-.09-9.62,1.25,2.19,2.67,4.55,4.29,7.12l15.25,24.38h9.48V339.37H498.61Z"/><rect class="cls-2" x="551.75" y="339.37" width="10.41" height="50.46"/><polygon class="cls-2" points="599.98 348.89 613.97 348.89 613.97 389.83 624.44 389.83 624.44 348.89 638.5 348.89 638.5 339.37 599.98 339.37 599.98 348.89"/><path class="cls-2" d="M704.16,368.83c0,12.43-6.74,12.43-9,12.43-7,0-8.47-6.76-8.47-12.43V339.37H676.25V368.7c0,13.9,6.84,21.88,18.75,21.88,12.48,0,19.63-8.08,19.63-22.16V339.37H704.16Z"/><path class="cls-2" d="M788.46,374.47c-.87-3.82-2.37-6.72-4.47-8.66a14,14,0,0,0,6.44-12.06,13.57,13.57,0,0,0-4.35-10.39c-3.32-3-7.88-4.33-14.81-4.33a64.54,64.54,0,0,0-11.84,1l-1.79.37v49.43h10.41V369.91h3.27c3.81.14,5.84,1.25,7.12,7.19,1.57,6.95,2.5,10.21,3.31,11.62l.65,1.11h11.17l-1.77-3.3C791,385,789.79,380.14,788.46,374.47Zm-20.41-26.21a32.79,32.79,0,0,1,3.61-.18c8.36.09,8.36,4.81,8.36,6.36,0,4-3.12,6.49-8.13,6.49h-3.84Z"/><polygon class="cls-2" points="841.93 368.27 859.81 368.27 859.81 358.88 841.93 358.88 841.93 348.83 860.83 348.83 860.83 339.37 831.52 339.37 831.52 389.83 861.86 389.83 861.86 380.38 841.93 380.38 841.93 368.27"/><polygon class="cls-2" points="970.67 175.7 927.49 175.7 908.16 175.7 908.16 195.03 908.16 303.74 927.49 303.74 927.49 195.03 970.67 195.03 970.67 303.74 990 303.74 990 104.36 970.67 104.36 970.67 175.7"/><path class="cls-1" d="M375.77,141.79l-47,138.3V141.79H299.26v68.67c0,12.86.13,24.69.6,36.46-4.67-8.5-9.83-17.21-15.56-26.26l-50-78.87H204.42V303.73H234v-70c0-14.75-.16-27.05-.51-38.49,4.91,8.86,10.66,18.53,17.46,29.38l49.51,79.12h52.32l15.66-47.42H413.8l16.1,47.42h32.63L407.27,141.79ZM406,229.92h-29.8l12.3-36.34c.84-2.67,1.67-5.41,2.51-8.27q1.25,4.19,2.74,8.61Z"/><path class="cls-1" d="M500.12,303.73V235.46l54.7-93.67H519.54l-23.28,44.65-2.17,4.25c-3,5.85-5.75,11.24-8.28,16.48-3-6.25-6.2-12.81-10.24-20.73l-22.8-44.65h-35l51.5,93.81v68.13Z"/><path class="cls-1" d="M565.23,141.79l-55,161.94h32l15.66-47.42h45.41l16.1,47.42H652L596.72,141.79Zm30.19,88.13h-29.8l12.3-36.34c.84-2.66,1.68-5.41,2.51-8.27q1.25,4.19,2.74,8.61Z"/><path class="cls-1" d="M762,295.49c-2.86-5.31-6.72-21.26-11.1-40-3-13.23-8.36-22.94-15.91-29,14.15-8.25,22.31-22.34,22.31-39.3,0-13.34-4.88-25-13.69-32.77-10.51-9.51-25.12-13.75-47.37-13.75-14.16,0-28.54,1.21-38.47,3.24l-4.47.92v158.9H684V238.42h12.64c13,.51,20.46,4.53,24.85,24.94,5.11,22.6,8.1,33.13,10.68,37.58l1.61,2.79h32.72ZM726.7,189.43c0,14.21-10.89,23-28.41,23H684V167.64a101.43,101.43,0,0,1,13.58-.8C716.9,167.05,726.7,174.65,726.7,189.43Z"/><rect class="cls-1" x="775.69" y="141.79" width="30.64" height="161.94"/><polygon class="cls-1" points="946.8 141.79 893.75 141.79 879.23 141.79 824 141.79 824 169.52 869.85 169.52 869.85 303.73 900.72 303.73 900.72 169.52 946.8 169.52 946.8 141.79"/></svg>